REM MD5 ec713bf7f08535adabd340afed78b9b8
FILE "PO'ed (Japan).bin" BINARY
  TRACK 01 MODE2/2352
    INDEX 01 00:00:00
  TRACK 02 AUDIO
    INDEX 00 08:31:74
    INDEX 01 08:33:74
  TRACK 03 AUDIO
    INDEX 00 12:20:33
    INDEX 01 12:22:33
  TRACK 04 AUDIO
    INDEX 00 13:43:11
    INDEX 01 13:45:11
REM LEADOUT 16:45:11
